<svg id="f06243a5-ec4d-4d3d-ba68-693f22b4c670" data-name="Ebene 1" xmlns="http://www.w3.org/2000/svg" viewBox="0 0 202.10007 101.34097">
  <title>logo</title>
  <g>
    <rect x="68.26227" width="18.73578" height="59.46156" rx="6.46642" style="fill: #1e172d"/>
    <rect x="91.6853" width="18.73578" height="59.46156" rx="6.46642" style="fill: #1e172d"/>
    <rect x="115.10449" width="18.73578" height="59.46156" rx="6.46642" style="fill: #1e172d"/>
    <polygon points="78.468 42.926 152.149 42.926 152.149 45.02 78.468 45.02 78.468 42.926" style="fill: #fdc50e;fill-rule: evenodd"/>
    <polygon points="62.487 52.956 127.349 52.956 127.349 50.862 62.487 50.862 62.487 52.956" style="fill: #fdc50e;fill-rule: evenodd"/>
    <polygon points="68.262 36.991 103.474 36.991 103.474 34.897 68.262 34.897 68.262 36.991" style="fill: #fdc50e;fill-rule: evenodd"/>
    <polygon points="133.844 42.926 158.002 42.926 158.002 45.02 133.844 45.02 133.844 42.926" style="fill: #1e172d;fill-rule: evenodd"/>
    <path d="M589.24683,358.272a2.46783,2.46783,0,0,1,2.104.95521,3.06971,3.06971,0,0,1,.95732,2.104,2.74519,2.74519,0,0,1-.9573,2.104,3.0655,3.0655,0,0,1-2.104.9573,2.73852,2.73852,0,0,1-2.104-.9573,3.07186,3.07186,0,0,1-.95521-2.104,2.47055,2.47055,0,0,1,.95521-2.104A3.06757,3.06757,0,0,1,589.24683,358.272Zm1.14665,2.104a1.43491,1.43491,0,0,0-2.29332,0,2.18468,2.18468,0,0,0-.57438,1.14666,1.36733,1.36733,0,0,0,.57438,1.14877,2.16693,2.16693,0,0,0,1.14665.57227,2.02622,2.02622,0,0,0,1.721-1.721,1.159,1.159,0,0,0-.57437-1.14876Z" transform="translate(-464.77444 -309.42357)" style="fill: #fdc50e"/>
    <path d="M565.82592,342.3082a2.73689,2.73689,0,0,1,2.104.95518h0a3.076,3.076,0,0,1,.95518,2.104,2.75036,2.75036,0,0,1-.95518,2.104,3.0697,3.0697,0,0,1-2.104.95731,2.469,2.469,0,0,1-2.104-.95731,3.06545,3.06545,0,0,1-.95737-2.104,3.29063,3.29063,0,0,1,3.06133-3.05923Zm1.14666,2.104a1.628,1.628,0,1,0-2.29331,2.29541,2.17465,2.17465,0,0,0,1.14666.57229,2.02634,2.02634,0,0,0,1.721-1.721,2.17688,2.17688,0,0,0-.57439-1.14658Z" transform="translate(-464.77444 -309.42357)" style="fill: #fdc50e"/>
    <path d="M542.40355,355.11921a1.62849,1.62849,0,0,0,1.14667-2.8677,2.18479,2.18479,0,0,0-1.14667-.57439,1.62858,1.62858,0,0,0-1.14876,2.8677A1.15632,1.15632,0,0,0,542.40355,355.11921Zm2.104.38294a3.07179,3.07179,0,0,1-2.104.95519,2.47057,2.47057,0,0,1-2.104-.95519,3.06374,3.06374,0,0,1,2.104-5.16523,2.4717,2.4717,0,0,1,2.104.95731,3.06553,3.06553,0,0,1,.95731,2.104,3.12263,3.12263,0,0,1-.95932,2.10394Z" transform="translate(-464.77444 -309.42357)" style="fill: #fdc50e"/>
    <g>
      <circle cx="101.05148" cy="35.94483" r="3.42366" style="fill: #fdc50e"/>
      <circle cx="101.05044" cy="35.97724" r="1.87906" style="fill: #1e172d"/>
    </g>
    <g>
      <circle cx="77.62806" cy="43.9746" r="3.42366" style="fill: #fdc50e"/>
      <circle cx="77.62701" cy="44.00699" r="1.87906" style="fill: #1e172d"/>
    </g>
    <g>
      <circle cx="124.83688" cy="52.10011" r="3.42366" style="fill: #fdc50e"/>
      <circle cx="124.83584" cy="52.1325" r="1.87906" style="fill: #1e172d"/>
    </g>
    <polygon points="42.088 50.862 68.262 50.862 68.262 52.956 42.088 52.956 42.088 50.862" style="fill: #1e172d;fill-rule: evenodd"/>
  </g>
  <g>
    <path d="M657.10859,386.59984c-.67967.95-1.22186,1.89993-1.62965,2.57964-.54224.81409-.81408,1.49372-1.08595,1.89993l-2.30632,4.47968h0L649.5085,400.581l-.40927.95-1.76409,3.52972a13.07079,13.07079,0,0,0-.67815,1.49371h0a9.83433,9.83433,0,0,1-.67967,1.22187h0a4.51222,4.51222,0,0,1-.40631.81407l-.13592.13594a5.88881,5.88881,0,0,1-.54374.95c-.27036.13595-.40628.27187-.67815.27187s-.4078-.13592-.67816-.40778a9.21182,9.21182,0,0,1-.67966-.95c0-.13592-.13592-.27184-.27036-.54222a2.18917,2.18917,0,0,1-.40779-.81558h0l-.54666-.95149h0l-9.36563-18.73124L631.7212,398.681h0V404.517a5.045,5.045,0,0,0,.81407,3.12187,3.34694,3.34694,0,0,0,2.30777,1.35779h0a8.89446,8.89446,0,0,1,1.22186.27035c.27187.13443.54223.27186.54223.54371a.699.699,0,0,1-.27036.54222,1.01847,1.01847,0,0,1-.67966.136h-.95c-.94995,0-1.76409-.136-2.44224-.136H628.4634c-.54223,0-1.22186.136-1.76409.136h-.81407a1.01852,1.01852,0,0,1-.67966-.136.70344.70344,0,0,1-.27036-.54222c0-.13592.13592-.27185.13592-.40778.13444-.13592.27039-.13592.54223-.27035h0a3.83,3.83,0,0,0,1.4937-.54371,2.1348,2.1348,0,0,0,.94995-.95h0a4.60877,4.60877,0,0,0,.54224-1.62815,12.169,12.169,0,0,0,.27183-2.44372l.40632-6.78748c.13592-2.44221.27183-4.48114.27183-6.1078s.136-2.7141.136-3.39224a28.87629,28.87629,0,0,0-.27187-3.6656,5.3641,5.3641,0,0,0-.95-2.57815,5.779,5.779,0,0,0-1.49373-1.62964,6.516,6.516,0,0,0-2.44373-.81409,1.0336,1.0336,0,0,1-.67815-.27186c-.13595-.13592-.27187-.27035-.27187-.40628a.70668.70668,0,0,1,.27187-.54373c.13592-.13591.27036-.13591.54224-.13591h6.244a1.5399,1.5399,0,0,1,1.086.40778,2.95221,2.95221,0,0,1,.95,1.22187l.27184.54222h0L643.66516,400.717l1.35627,2.44221h0c.13595.13595.13595.40779.27183.40779h0l.27188-.27185.27183-.67814.2704-.40779h0l12.08118-23.88906h0c.13445-.27035.2704-.40628.2704-.67814h0c.13592-.13592.13592-.27186.27184-.40778s.13591-.13592.27183-.13592h3.8a2.66979,2.66979,0,0,0,1.08594-.13443h.67815a.82429.82429,0,0,1,.54374.13443.49878.49878,0,0,1,.13592.40778.81709.81709,0,0,1-.13592.54371c-.13595.13592-.27187.13443-.40779.27035l-1.08594.27187h0a2.73567,2.73567,0,0,0-1.08594.54371,2.42969,2.42969,0,0,0-.67815.95c-.136.40778-.27188.95-.40779,1.49372h0a11.81614,11.81614,0,0,0-.13445,2.30779h0l.13445,5.7.5437,12.89528.136,2.98742h0a5.08641,5.08641,0,0,0,.13592,1.49372,2.19159,2.19159,0,0,0,.54223.95,5.89206,5.89206,0,0,0,.95.67815,14.071,14.071,0,0,0,1.62966.40778,2.58136,2.58136,0,0,1,1.08594.27038c.27039.13592.40631.27184.40631.54371a.43319.43319,0,0,1-.40631.40778h0c-.13592.13443-.40779.13443-.81555.13443h-.67822l-2.03593-.13443h0a2.98743,2.98743,0,0,1-1.08594-.13592h-2.17185a4.60458,4.60458,0,0,0-1.35631.13592h0c-.9515,0-1.62961.13443-2.17185.13443h-.95a1.23693,1.23693,0,0,1-.67967-.13443h0c-.13595-.13592-.27183-.27186-.27183-.40778s.13592-.27187.27183-.40779h0c.13592-.13591.27184-.13591.54371-.27035h0a6.27507,6.27507,0,0,0,1.22039-.40778,1.64324,1.64324,0,0,0,.67966-.67816h0a6.24783,6.24783,0,0,0,.40628-1.22185,6.63069,6.63069,0,0,0,.13595-1.76558h0l-.13595-3.93595Z" transform="translate(-464.77444 -309.42357)" style="fill: #1e172d"/>
    <path d="M608.91823,397.731H599.5526a4.69312,4.69312,0,0,0-1.4937.13443,4.80973,4.80973,0,0,0-.81407.13592h0l-.54223.54371c-.13592.27186-.40776.67816-.67963,1.22187h0l-1.62371,3.52816a10.454,10.454,0,0,0-.81407,2.04341h0a7.81253,7.81253,0,0,0-.27187,1.35779c0,.40778.13592.67814.13592.95h0c.13592.27185.27187.40779.40779.67815a2.2014,2.2014,0,0,0,.81407.40778c.40628.13592.94995.27186,1.4937.40778h0a1.04567,1.04567,0,0,1,.67963.27035c.13595.13595.27039.27187.27039.40779h0c0,.13594-.13444.27186-.13444.40778-.13595.13443-.27187.13443-.54374.13443h-.95l-2.44372-.13443h-4.07334c-.40628,0-.67815.13443-.95.13443h-.40631a1.23679,1.23679,0,0,1-.67966-.13443c-.13592-.13592-.27184-.27185-.27184-.40778a.4989.4989,0,0,1,.13592-.40779c.13592-.13592.27187-.13592.40779-.27035h0l.95-.27932h0a1.03071,1.03071,0,0,0,.54371-.27186h0a2.31091,2.31091,0,0,0,.81407-.81409c.27036-.40778.54224-.67814.81407-1.08592s.40779-.67815.67815-1.08593l.67967-1.62815h0l13.30157-27.14684h0a1.9024,1.9024,0,0,1,.40628-.54372h0a.705.705,0,0,1,.54374-.27035c.13592,0,.27184.13443.40776.27035a1.90343,1.90343,0,0,1,.40631.54372l11.12968,26.06092.54371,1.22038h0c.40632.95149.81407,1.76556,1.086,2.30778a12.88885,12.88885,0,0,0,.95,1.22187,5.31139,5.31139,0,0,0,1.22186.54371,7.6936,7.6936,0,0,0,2.03593.4063h0c.27188.13592.54224.13592.67816.27184h0c.13595.13595.27183.27187.27183.4063h0c0,.13592-.13592.40778-.27183.40778a.81335.81335,0,0,1-.54224.13592H622.7679a11.063,11.063,0,0,1-1.89991-.1404h-5.83743c-.67816,0-1.22187.13592-1.4937.13592a1.36922,1.36922,0,0,0-.4078.13594h-.40779c-.27036,0-.40628-.13594-.67815-.13594-.136-.13592-.136-.27185-.136-.54371,0-.13444,0-.4063.136-.4063.13592-.13592.27184-.13592.54224-.13592l.81554-.13592h0a1.36948,1.36948,0,0,0,1.22186-1.49371,6.11858,6.11858,0,0,0-.40779-1.76558c-.27183-.81409-.67815-1.89993-1.22186-3.12189h0l-1.35778-3.12186a3.21919,3.21919,0,0,0-.40631-.95,1.64391,1.64391,0,0,0-.27184-.4063h0c-.13592-.13592-.27184-.13592-.54223-.13592A5.56436,5.56436,0,0,1,608.91823,397.731Zm.27187-3.93746-4.06744-9.36712h0l-.13591-.54222h0c-.136-.27187-.27184-.40779-.27184-.54373-.136-.13443-.136-.13443-.27187-.13443h0l-.13592.13443a.4765.4765,0,0,0-.13444.27186h0l-5.0234,10.18118h0c-.13445.27187-.13445.40779-.27036.54373h0a.42126.42126,0,0,0-.136.27185c0,.13443.136.27037.136.40629.13591.13592.40628.13592.81407.13592h8.4156a2.01211,2.01211,0,0,0,.94995-.13592c.13595-.13592.27187-.13592.27187-.40629v-.13592h0c0-.13592-.13595-.13592-.13595-.27187h0Z" transform="translate(-464.77444 -309.42357)" style="fill: #1e172d"/>
    <path d="M584.89775,380.22015l.81407,5.7h0l.13592.54223h0l-.13592.27185h0c0,.13594-.13444.13594-.13444.27186-.13592,0-.13592.13592-.27184.13592h0a1.03071,1.03071,0,0,1-.54374-.27185,2.09148,2.09148,0,0,1-.54223-.81409h0a19.20492,19.20492,0,0,0-5.5656-5.83744,14.743,14.743,0,0,0-7.32969-1.89993,15.498,15.498,0,0,0-5.83592.95,12.43281,12.43281,0,0,0-4.48117,2.71558,13.39118,13.39118,0,0,0-2.85,4.34374,14.77735,14.77735,0,0,0-.95,5.7,20.10728,20.10728,0,0,0,1.08593,6.65153,14.78762,14.78762,0,0,0,3.12488,5.29525h0a14.98082,14.98082,0,0,0,4.75,3.52816,14.253,14.253,0,0,0,5.97486,1.22185,18.07412,18.07412,0,0,0,3.80154-.40778,19.99912,19.99912,0,0,0,3.66407-1.35628h0a20.84547,20.84547,0,0,0,3.12188-2.036,16.143,16.143,0,0,0,2.03593-2.44373h0a2.90657,2.90657,0,0,1,.54371-.95.726.726,0,0,1,.54223-.40778h0c.13592,0,.40779,0,.40779.13594a.49883.49883,0,0,1,.13592.40779h0v.27184h0l-.13592.54223h0l-.54371,2.98745h0l-.13444.40778c0,.27035-.13595.40628-.40779.67814a5.71094,5.71094,0,0,1-.94995.67814h0a20.96034,20.96034,0,0,1-6.24375,2.57976,28.38421,28.38421,0,0,1-6.9219.95,21.56665,21.56665,0,0,1-7.4686-1.22187,18.47689,18.47689,0,0,1-5.97488-3.39373,14.63957,14.63957,0,0,1-3.8-5.29232,17.79014,17.79014,0,0,1-1.35928-6.78894,15.96316,15.96316,0,0,1,1.3578-6.786,17.37262,17.37262,0,0,1,3.93593-5.56558,18.22328,18.22328,0,0,1,5.97487-3.66411A20.69066,20.69066,0,0,1,571.054,376.828a23.41484,23.41484,0,0,1,5.29231.54222,27.9745,27.9745,0,0,1,4.75153,1.62964l1.08295.54222.40628.13592.40779.13594h.13592l.13592-.13594c.27036-.13592.40632-.27185.54224-.27185h0a.4989.4989,0,0,1,.40779-.13594c.13592,0,.40628.13594.40628.27186h0C584.7618,379.67793,584.7618,379.94531,584.89775,380.22015Z" transform="translate(-464.77444 -309.42357)" style="fill: #1e172d"/>
    <path d="M547.43528,380.22015l.81554,5.7h0l.13446.54223h0l-.13446.27185h0l-.27632.27334h0c-.13591,0-.13591.13595-.27187.13595h0c-.13592,0-.27187-.13595-.54221-.27186a2.09134,2.09134,0,0,1-.54371-.81407h0a18.03834,18.03834,0,0,0-5.7-5.83747,14.74775,14.74775,0,0,0-7.32968-1.89992,15.98809,15.98809,0,0,0-5.83745.95,13.71337,13.71337,0,0,0-4.48116,2.71559,13.41872,13.41872,0,0,0-2.85152,4.34373,14.8661,14.8661,0,0,0-.94253,5.7,20.107,20.107,0,0,0,1.08592,6.65153,14.82685,14.82685,0,0,0,3.12189,5.29375h0a14.9704,14.9704,0,0,0,4.75153,3.52816,14.2432,14.2432,0,0,0,5.97488,1.22185,17.14,17.14,0,0,0,3.8-.40778,25.80843,25.80843,0,0,0,3.80152-1.35629h0a21.00143,21.00143,0,0,0,3.12189-2.036,16.32029,16.32029,0,0,0,2.03593-2.44372h0c.27038-.40778.4063-.81406.54222-.95h0c.27187-.27185.40779-.40778.54373-.40778h0a.481.481,0,0,1,.54221.54372h0v.27185h0l-.13593.54222h0l-.67814,2.98745h0l-.13592.40779c0,.27035-.13592.40628-.40779.67814a5.65,5.65,0,0,1-.94995.67814h0a22.53854,22.53854,0,0,1-6.24375,2.57976,28.4562,28.4562,0,0,1-6.92192.95,21.57307,21.57307,0,0,1-7.46858-1.22187,18.45532,18.45532,0,0,1-5.97488-3.39373,13.19693,13.19693,0,0,1-3.79706-5.28926,17.72691,17.72691,0,0,1-1.22184-6.79193,15.96285,15.96285,0,0,1,1.35628-6.786A17.3546,17.3546,0,0,1,520.154,381.714a18.20694,18.20694,0,0,1,5.97488-3.6641,20.7063,20.7063,0,0,1,7.32968-1.22186,22.66266,22.66266,0,0,1,5.29374.54223,27.95837,27.95837,0,0,1,4.741,1.62963l.95.54223.4078.13591.40628.13595h.13591c.13594,0,.13594-.13595.27188-.13595a1.03212,1.03212,0,0,1,.54221-.27184h0a.499.499,0,0,1,.40779-.136c.13592,0,.40779.136.40779.27187h0A.74685.74685,0,0,1,547.43528,380.22015Z" transform="translate(-464.77444 -309.42357)" style="fill: #1e172d"/>
    <path d="M473.86814,384.56388v17.7872a15.63069,15.63069,0,0,0,.13592,2.71559,4.73323,4.73323,0,0,0,.40779,1.62815,5.89507,5.89507,0,0,0,.54222.95c.13593.27186.40779.40778.67964.67816h0a6.52847,6.52847,0,0,0,.95.40778c.40629.13592.81408.13592,1.3563.27185.40776.13594.81556.13594.95.27038h0c.13594.13592.27188.13592.4078.40778,0-.13594,0-.13594.13593-.13594.13592-.13592.27184-.13592.40628-.27185h0l.95152-.27038h0a1.03214,1.03214,0,0,0,.54221-.27185c.27184-.13594.4078-.40778.67814-.81408s.53773-.68562.81556-1.08444.40628-.67966.67814-1.08593l.81415-1.62949h0L497.48678,376.958h0a1.87686,1.87686,0,0,1,.40779-.54371.67373.67373,0,0,1,1.08593.006.7065.7065,0,0,1,.27187.54371l11.12821,26.05929.54968,1.22187h0c.40779.95.81557,1.76558,1.08593,2.30779s.67964.95.81556,1.22185a5.23792,5.23792,0,0,0,1.22037.54223,7.73568,7.73568,0,0,0,2.03744.40778h0c.27036.13595.54222.13595.67814.27186h0c.13593.13592.27187.27036.27187.40628h0c0,.13595-.13592.40779-.27187.40779a5.91983,5.91983,0,0,1-.67814.13594h-1.08592a11.08983,11.08983,0,0,1-1.90151-.13594h-5.70751c-.67814,0-1.22184.13594-1.49372.13594-.13592,0-.40629.13592-.54221.13592h-.40326c-.27036,0-.40628-.13592-.54221-.13592a.70663.70663,0,0,1-.27188-.54371c0-.13594.13594-.4063.27188-.4063.13593-.13591.27187-.13591.54221-.13591l.81409-.13595h0a1.36837,1.36837,0,0,0,1.22184-1.49372,6.15831,6.15831,0,0,0-.40628-1.76409c-.27037-.81406-.68413-1.89993-1.22634-3.1159h0l-1.3578-3.12186c-.13592-.4063-.40628-.81409-.40628-.95h0q-.20316-.40929-.40779-.40926h0c-.13593-.13444-.27187-.13444-.54373-.13444h-10.586a4.26246,4.26246,0,0,0-1.49373.13444,4.80855,4.80855,0,0,0-.81407.13591,5.45715,5.45715,0,0,0-1.22188,1.89993h0l-1.76408,3.52521a10.35842,10.35842,0,0,0-.81408,2.03593,7.81441,7.81441,0,0,0-.27188,1.35779,1.69587,1.69587,0,0,0,.54222,1.49373,2.23791,2.23791,0,0,0,.81556.40779c.4063.13592.95.27184,1.49372.40778h0c.27187,0,.40781.13443.67817.27035.13592.13592.27187.27185.27187.40778h0a.499.499,0,0,1-.13593.40779c-.13592.13443-.27036.13443-.54222.13443h-1.08593l-2.44372-.13443h-4.06588c-.4063,0-.67814.13443-.95.13443h-.54366c-.27187,0-.40779,0-.54373-.13443-.13591,0-.13591-.13595-.27183-.27187,0,.13595-.13444.13595-.27038.27187a1.01907,1.01907,0,0,1-.67963.13443h-.95c-.27188,0-.67814-.13443-1.08593-.13443h-5.29989l-2.98743.13443h0c-.54222,0-.95.13592-1.22188.13592a1.22342,1.22342,0,0,1-.67814-.13592c-.27187-.13443-.27187-.27035-.27187-.54223,0-.13591.13594-.40778.27187-.40778a1.01633,1.01633,0,0,1,.67814-.13592h0a13.81091,13.81091,0,0,0,1.62965-.40629,1.39668,1.39668,0,0,0,.81557-.68562,8.47164,8.47164,0,0,0,.40779-1.35779,13.19227,13.19227,0,0,0,.13592-2.44372V384.02167a13.18287,13.18287,0,0,0-.13592-2.44373,2.55488,2.55488,0,0,0-.54373-1.35779h0a2.11511,2.11511,0,0,0-1.08593-.81406,7.83277,7.83277,0,0,0-1.89992-.54222h0a1.03356,1.03356,0,0,1-.67814-.27187c-.13592-.13591-.27187-.27186-.27187-.40778h0a.70509.70509,0,0,1,.27187-.54222,1.01417,1.01417,0,0,1,.67814-.13592h.54369c.67813,0,1.35629.13592,2.17037.13592h4.48117a5.08644,5.08644,0,0,0,1.49372-.13592l1.76407-.13595h.67814a1.225,1.225,0,0,1,.67964.13595h0c.13592.13592.27036.27186.27036.40778a1.02332,1.02332,0,0,1-.27036.54223c-.13592.13591-.27187.13591-.54371.27184l-1.3563.54223h0c-.54371.13594-.9515.67965-1.3578,1.62966A11.11953,11.11953,0,0,0,473.86814,384.56388Zm27.69054,9.22969-3.93732-9.36712h0l-.27036-.54222h0c-.13594-.27187-.13594-.40779-.27187-.54373s-.13592-.13443-.27188-.13443h0l-.13591.13443c-.13592,0-.13592.13594-.13592.27186h0l-5.02352,10.18121h0c-.13592.27186-.13592.40778-.27187.54373h0a.4763.4763,0,0,1-.13445.27184c0,.13444.13445.27038.27038.4063s.40779.13592.81557.13592h8.41412a2.01571,2.01571,0,0,0,.9515-.13592c.13444-.13592.27036-.13592.27036-.4063a.49891.49891,0,0,0-.13592-.40778h0Z" transform="translate(-464.77444 -309.42357)" style="fill: #1e172d"/>
  </g>
</svg>
