<svg id="Ebene_1" data-name="Ebene 1" xmlns="http://www.w3.org/2000/svg" viewBox="0 0 1353.04 590.65"><defs><style>.cls-1,.cls-2{fill:#ffc107;}.cls-2,.cls-3{fill-rule:evenodd;}.cls-3,.cls-4{fill:#070713;}</style></defs><title>logo-new-dark</title><path class="cls-1" d="M1411.62-69.45c-4.55,6.36-8.18,12.72-10.91,17.27-3.63,5.45-5.45,10-7.27,12.72L1378-9.47h0l-17.26,33.62L1358,30.51l-11.81,23.63a87.5,87.5,0,0,0-4.54,10h0c-1.82,2.73-2.73,6.36-4.55,8.18h0c-.91,2.73-1.81,3.63-2.72,5.45l-.91.91c-.91,2.73-2.73,4.54-3.64,6.36-1.81.91-2.72,1.82-4.54,1.82s-2.73-.91-4.54-2.73a61.62,61.62,0,0,1-4.55-6.36c0-.91-.91-1.82-1.81-3.63q-1.37-1.36-2.73-5.46h0L1308,62.31h0l-62.7-125.4-3.64,74.52h0V50.5c0,9.09,1.82,16.36,5.45,20.9s8.18,8.18,15.45,9.09h0c3.64.91,6.36.91,8.18,1.81s3.63,1.82,3.63,3.64a4.68,4.68,0,0,1-1.81,3.63c-.91.91-2.73.91-4.55.91h-6.36c-6.36,0-11.81-.91-16.35-.91h-25.45c-3.63,0-8.18.91-11.81.91h-5.45c-1.82,0-3.64,0-4.55-.91a4.71,4.71,0,0,1-1.81-3.63c0-.91.91-1.82.91-2.73.9-.91,1.81-.91,3.63-1.81h0c4.54-.91,7.27-1.82,10-3.64s5.45-3.63,6.36-6.36h0c1.81-2.73,2.72-6.36,3.63-10.9a81.49,81.49,0,0,0,1.82-16.36l2.72-45.44c.91-16.35,1.82-30,1.82-40.89s.91-18.17.91-22.71a193.33,193.33,0,0,0-1.82-24.54c-.91-6.36-2.72-12.72-6.36-17.26a38.69,38.69,0,0,0-10-10.91,43.62,43.62,0,0,0-16.36-5.45,6.92,6.92,0,0,1-4.54-1.82c-.91-.91-1.82-1.81-1.82-2.72a4.73,4.73,0,0,1,1.82-3.64c.91-.91,1.81-.91,3.63-.91h41.8a10.31,10.31,0,0,1,7.27,2.73c2.73,1.82,4.54,4.54,6.36,8.18l1.82,3.63h0l71.79,142.67,9.08,16.35h0c.91.91.91,2.73,1.82,2.73v0h0l1.82-1.82,1.82-4.54,1.81-2.73h0l80.88-159.93h0c.9-1.81,1.81-2.72,1.81-4.54h0c.91-.91.91-1.82,1.82-2.73s.91-.91,1.82-.91h25.44c2.73,0,5.45,0,7.27-.9h4.54c.91,0,2.73,0,3.64.9a3.34,3.34,0,0,1,.91,2.73c0,.91,0,2.73-.91,3.64s-1.82.9-2.73,1.81l-7.27,1.82h0c-2.72.91-5.45,1.82-7.27,3.64s-3.63,3.63-4.54,6.36-1.82,6.36-2.73,10h0c-.9,4.54-.9,9.09-.9,15.45h0l.9,38.16,3.64,86.33.91,20h0c0,3.64,0,7.27.91,10a14.67,14.67,0,0,0,3.63,6.36c1.82,1.81,3.64,2.72,6.36,4.54a94.19,94.19,0,0,0,10.91,2.73,17.28,17.28,0,0,1,7.27,1.81c1.81.91,2.72,1.82,2.72,3.64a2.9,2.9,0,0,1-2.72,2.73h0c-.91.9-2.73.9-5.46.9h-4.54l-13.63-.9h0a20,20,0,0,1-7.27-.91h-14.54c-2.72,0-6.36,0-9.08.91h0c-6.37,0-10.91.9-14.54.9h-6.36a8.28,8.28,0,0,1-4.55-.9h0c-.91-.91-1.82-1.82-1.82-2.73s.91-1.82,1.82-2.73h0c.91-.91,1.82-.91,3.64-1.81h0a42,42,0,0,0,8.17-2.73,11,11,0,0,0,4.55-4.54h0a41.83,41.83,0,0,0,2.72-8.18c.91-2.73.91-7.27.91-11.82h0l-.91-26.35Z" transform="translate(-124 498.35)"/><path class="cls-1" d="M1089,5.07h-62.7c-4.54,0-7.27,0-10,.9-2.72,0-4.54.91-5.45.91h0l-3.63,3.64c-.91,1.82-2.73,4.54-4.55,8.18h0L991.8,42.32A70,70,0,0,0,986.35,56h0c-.91,3.64-1.82,7.27-1.82,9.09,0,2.73.91,4.54.91,6.36h0c.91,1.82,1.82,2.73,2.73,4.54q1.35,1.36,5.45,2.73c2.72.91,6.36,1.82,10,2.73h0a7,7,0,0,1,4.55,1.81c.91.91,1.81,1.82,1.81,2.73h0c0,.91-.9,1.82-.9,2.73-.91.9-1.82.9-3.64.9h-6.36l-16.36-.9H955.45c-2.72,0-4.54.9-6.36.9h-2.72a8.28,8.28,0,0,1-4.55-.9c-.91-.91-1.82-1.82-1.82-2.73a3.34,3.34,0,0,1,.91-2.73c.91-.91,1.82-.91,2.73-1.81h0L950,79.58h0a6.9,6.9,0,0,0,3.64-1.82h0a15.47,15.47,0,0,0,5.45-5.45c1.81-2.73,3.63-4.54,5.45-7.27s2.73-4.54,4.54-7.27l4.55-10.9h0l89.05-181.74h0a12.74,12.74,0,0,1,2.72-3.64h0a4.72,4.72,0,0,1,3.64-1.81c.91,0,1.82.9,2.73,1.81a12.74,12.74,0,0,1,2.72,3.64L1149,39.6l3.64,8.17h0c2.72,6.37,5.45,11.82,7.27,15.45,2.72,3.64,4.54,6.36,6.36,8.18,1.82.91,4.54,2.73,8.18,3.64s8.18,2.72,13.63,2.72h0c1.82.91,3.63.91,4.54,1.82h0c.91.91,1.82,1.82,1.82,2.72h0c0,.91-.91,2.73-1.82,2.73-.91.91-2.72.91-3.63.91h-7.27A74.08,74.08,0,0,1,1169,85h-39.08c-4.54,0-8.18.91-10,.91a9.17,9.17,0,0,0-2.73.91h-2.73c-1.81,0-2.72-.91-4.54-.91-.91-.91-.91-1.82-.91-3.64,0-.9,0-2.72.91-2.72.91-.91,1.82-.91,3.63-.91l5.46-.91h0c5.45-.91,8.18-4.54,8.18-10,0-2.73-.91-6.37-2.73-11.82s-4.54-12.72-8.18-20.9h0l-9.09-20.9c-.9-2.72-1.81-5.45-2.72-6.36a11,11,0,0,0-1.82-2.72h0c-.91-.91-1.82-.91-3.63-.91A37.25,37.25,0,0,1,1089,5.07Zm1.82-26.36L1063.59-84h0l-.91-3.63h0c-.91-1.82-1.82-2.73-1.82-3.64-.91-.9-.91-.9-1.82-.9h0l-.91.9a3.19,3.19,0,0,0-.9,1.82h0L1023.6-21.29h0c-.9,1.82-.9,2.73-1.81,3.64h0a2.82,2.82,0,0,0-.91,1.82c0,.9.91,1.81.91,2.72.91.91,2.72.91,5.45.91h56.34c2.72,0,4.54,0,6.36-.91.91-.91,1.82-.91,1.82-2.72v-.91h0c0-.91-.91-.91-.91-1.82h0Z" transform="translate(-124 498.35)"/><path class="cls-1" d="M928.19-112.16,933.64-74h0l.91,3.63h0l-.91,1.82h0c0,.91-.9.91-.9,1.82-.91,0-.91.91-1.82.91h0a6.9,6.9,0,0,1-3.64-1.82,14,14,0,0,1-3.63-5.45h0c-10.91-17.27-23.63-30-37.26-39.08a98.7,98.7,0,0,0-49.07-12.72c-14.54,0-28.17,1.82-39.07,6.36-11.81,4.55-21.81,10-30,18.18a89.65,89.65,0,0,0-19.08,29.08c-4.54,10.9-6.36,23.62-6.36,38.16a134.61,134.61,0,0,0,7.27,44.53A99,99,0,0,0,771,46.87h0a100.29,100.29,0,0,0,31.8,23.62c11.82,5.45,25.45,8.18,40,8.18a121,121,0,0,0,25.45-2.73c8.18-1.81,16.35-5.45,24.53-9.08h0c8.18-4.55,15.45-9.09,20.9-13.63a108.07,108.07,0,0,0,13.63-16.36h0a19.46,19.46,0,0,1,3.64-6.36,4.86,4.86,0,0,1,3.63-2.73h0c.91,0,2.73,0,2.73.91a3.34,3.34,0,0,1,.91,2.73h0v1.82h0l-.91,3.63h0l-3.64,20h0l-.9,2.73c0,1.81-.91,2.72-2.73,4.54s-3.64,2.73-6.36,4.54h0c-12.72,8.18-27.26,13.63-41.8,17.27s-30,6.36-46.34,6.36c-18.18,0-35.44-2.73-50-8.18a123.7,123.7,0,0,1-40-22.72c-10.9-10-20-21.8-25.44-35.43A119.1,119.1,0,0,1,711-19.47c0-16.36,2.73-31.8,9.09-45.43s14.54-26.36,26.35-37.26a122,122,0,0,1,40-24.53q21.79-8.19,49.07-8.18a156.76,156.76,0,0,1,35.43,3.63,187.29,187.29,0,0,1,31.81,10.91L910-116.7l2.72.91,2.73.91h.91l.91-.91c1.81-.91,2.72-1.82,3.63-1.82h0a3.34,3.34,0,0,1,2.73-.91c.91,0,2.72.91,2.72,1.82h0C927.28-115.79,927.28-114,928.19-112.16Z" transform="translate(-124 498.35)"/><path class="cls-1" d="M677.39-112.16,682.85-74h0l.9,3.63h0l-.9,1.82h0L681-66.72h0c-.91,0-.91.91-1.82.91h0c-.91,0-1.82-.91-3.63-1.82a14,14,0,0,1-3.64-5.45h0c-10.9-17.27-23.62-30-38.16-39.08a98.73,98.73,0,0,0-49.07-12.72c-14.54,0-27.26,1.82-39.08,6.36-10.9,4.55-21.81,10-30,18.18a89.83,89.83,0,0,0-19.09,29.08C492-60.36,490.2-47.64,490.2-33.1a134.61,134.61,0,0,0,7.27,44.53,99.26,99.26,0,0,0,20.9,35.44h0a100.22,100.22,0,0,0,31.81,23.62c11.81,5.45,25.44,8.18,40,8.18a114.75,114.75,0,0,0,25.44-2.73c8.18-1.81,16.36-5.45,25.45-9.08h0c8.17-4.55,15.44-9.09,20.9-13.63a109.27,109.27,0,0,0,13.63-16.36h0c1.81-2.73,2.72-5.45,3.63-6.36h0c1.82-1.82,2.73-2.73,3.64-2.73h0a3.22,3.22,0,0,1,3.63,3.64h0v1.82h0l-.91,3.63h0l-4.54,20h0l-.91,2.73c0,1.81-.91,2.72-2.73,4.54s-3.63,2.73-6.36,4.54h0a150.89,150.89,0,0,1-41.8,17.27c-14.54,3.63-30,6.36-46.34,6.36-18.17,0-35.44-2.73-50-8.18a123.55,123.55,0,0,1-40-22.72A88.35,88.35,0,0,1,467.49,26C462,12.34,459.31-2.2,459.31-19.47c0-16.36,2.72-31.8,9.08-45.43s14.54-26.36,26.36-37.26a121.89,121.89,0,0,1,40-24.53q21.81-8.19,49.07-8.18c12.72,0,23.62.91,35.44,3.63A187.18,187.18,0,0,1,651-120.33l6.36,3.63,2.73.91,2.72.91h.91c.91,0,.91-.91,1.82-.91a6.91,6.91,0,0,1,3.63-1.82h0a3.34,3.34,0,0,1,2.73-.91c.91,0,2.73.91,2.73,1.82h0A5,5,0,0,1,677.39-112.16Z" transform="translate(-124 498.35)"/><path class="cls-1" d="M184.88-83.08V36c0,7.27,0,13.63.91,18.18s.91,8.17,2.73,10.9c.91,2.73,2.72,4.54,3.63,6.36s2.73,2.73,4.55,4.54h0a43.7,43.7,0,0,0,6.36,2.73c2.72.91,5.45.91,9.08,1.82,2.73.91,5.46.91,6.36,1.81h0c.91.91,1.82.91,2.73,2.73,0-.91,0-.91.91-.91.91-.91,1.82-.91,2.72-1.82h0l6.37-1.81h0a6.91,6.91,0,0,0,3.63-1.82c1.82-.91,2.73-2.73,4.54-5.45S243,68.67,244.86,66s2.72-4.55,4.54-7.27l5.45-10.91h0L343-134h0a12.56,12.56,0,0,1,2.73-3.64,6.9,6.9,0,0,1,3.64-1.82A6.91,6.91,0,0,1,353-137.6a4.73,4.73,0,0,1,1.82,3.64L429.32,40.5,433,48.68h0c2.73,6.36,5.46,11.82,7.27,15.45s4.55,6.36,5.46,8.18c1.81.91,4.54,2.73,8.17,3.63s8.18,2.73,13.64,2.73h0c1.81.91,3.63.91,4.54,1.82h0c.91.91,1.82,1.81,1.82,2.72h0c0,.91-.91,2.73-1.82,2.73s-2.73.91-4.54.91h-7.27a74.24,74.24,0,0,1-12.73-.91H409.33c-4.54,0-8.18.91-10,.91-.91,0-2.72.91-3.63.91H393c-1.81,0-2.72-.91-3.63-.91a4.73,4.73,0,0,1-1.82-3.64c0-.91.91-2.72,1.82-2.72.91-.91,1.82-.91,3.63-.91l5.45-.91h0c5.46-.91,8.18-4.54,8.18-10,0-2.72-.91-6.36-2.72-11.81S399.33,44.14,395.7,36h0l-9.09-20.9c-.91-2.72-2.72-5.45-2.72-6.36h0Q382.53,6,381.16,6h0c-.91-.9-1.82-.9-3.64-.9H306.65c-4.55,0-8.18,0-10,.9-2.72,0-4.54.91-5.45.91-1.82.91-4.54,5.46-8.18,12.72h0L271.21,43.23a69.35,69.35,0,0,0-5.45,13.63c-.91,3.64-1.82,7.27-1.82,9.09,0,4.54.91,8.18,3.63,10q1.37,1.36,5.46,2.73c2.72.91,6.36,1.82,10,2.73h0c1.82,0,2.73.9,4.54,1.81.91.91,1.82,1.82,1.82,2.73h0a3.34,3.34,0,0,1-.91,2.73c-.91.9-1.81.9-3.63.9h-7.27l-16.36-.9H234c-2.72,0-4.54.9-6.36.9H224c-1.82,0-2.73,0-3.64-.9-.91,0-.91-.91-1.82-1.82,0,.91-.9.91-1.81,1.82s-2.73.9-4.55.9h-6.36c-1.82,0-4.54-.9-7.27-.9H163.07l-20,.9h0c-3.63,0-6.36.91-8.18.91a8.19,8.19,0,0,1-4.54-.91c-1.82-.9-1.82-1.81-1.82-3.63,0-.91.91-2.73,1.82-2.73.91-.91,2.73-.91,4.54-.91h0a92.45,92.45,0,0,0,10.91-2.72A9.35,9.35,0,0,0,151.26,75c.91-1.82,1.82-5.46,2.73-9.09.91-4.55.91-10,.91-16.36V-86.71c0-6.36,0-11.82-.91-16.36s-1.82-7.27-3.64-9.09h0a14.16,14.16,0,0,0-7.27-5.45c-3.63-1.81-8.18-2.72-12.72-3.63h0a6.92,6.92,0,0,1-4.54-1.82c-.91-.91-1.82-1.82-1.82-2.73h0a4.72,4.72,0,0,1,1.82-3.63c.91-.91,2.72-.91,4.54-.91H134c4.54,0,9.08.91,14.53.91h30c3.64,0,7.27,0,10-.91l11.81-.91h4.54a8.2,8.2,0,0,1,4.55.91h0c.91.91,1.81,1.82,1.81,2.73a6.85,6.85,0,0,1-1.81,3.63c-.91.91-1.82.91-3.64,1.82l-9.08,3.63h0c-3.64.91-6.37,4.55-9.09,10.91Q184.88-100.8,184.88-83.08ZM370.26-21.29,343.9-84h0l-1.81-3.63h0c-.91-1.82-.91-2.73-1.82-3.64s-.91-.9-1.82-.9h0l-.91.9c-.91,0-.91.91-.91,1.82h0L303-21.29h0c-.91,1.82-.91,2.73-1.82,3.64h0a3.19,3.19,0,0,1-.9,1.82c0,.9.9,1.81,1.81,2.72s2.73.91,5.46.91h56.33c2.73,0,4.55,0,6.37-.91.9-.91,1.81-.91,1.81-2.72a3.34,3.34,0,0,0-.91-2.73h0Z" transform="translate(-124 498.35)"/><path class="cls-2" d="M655.58-498.35h67.25a11,11,0,0,1,10.9,10.91v260.79a11,11,0,0,1-10.9,10.9H655.58a11,11,0,0,1-10.9-10.9v-261.7C645.59-493.81,650.13-498.35,655.58-498.35Z" transform="translate(-124 498.35)"/><path class="cls-2" d="M755.54-498.35h67.24a10.5,10.5,0,0,1,10.91,10.91v260.79a11.05,11.05,0,0,1-10.91,10.9H755.54a11,11,0,0,1-10.9-10.9v-261.7C744.64-493.81,749.18-498.35,755.54-498.35Z" transform="translate(-124 498.35)"/><path class="cls-2" d="M854.59-498.35h67.24a10.5,10.5,0,0,1,10.91,10.91v260.79a11.05,11.05,0,0,1-10.91,10.9H854.59a10.5,10.5,0,0,1-10.91-10.9v-261.7C843.68-493.81,849.14-498.35,854.59-498.35Z" transform="translate(-124 498.35)"/><polygon class="cls-2" points="267.15 250.8 521.59 250.8 521.59 242.62 267.15 242.62 267.15 250.8"/><polygon class="cls-3" points="589.74 205.36 807.83 205.36 807.83 212.63 589.74 212.63 589.74 205.36"/><polygon class="cls-3" points="521.59 250.8 740.58 250.8 740.58 242.62 521.59 242.62 521.59 250.8"/><polygon class="cls-3" points="521.59 174.47 655.17 174.47 655.17 167.2 521.59 167.2 521.59 174.47"/><polygon class="cls-2" points="807.83 205.36 985.02 205.36 985.02 212.63 807.83 212.63 807.83 205.36"/><path class="cls-4" d="M875.49-266.63c4.54,0,8.18,1.81,10,4.54a14.59,14.59,0,0,1,4.55,10c0,3.63-1.82,8.17-4.55,10a14.57,14.57,0,0,1-10,4.55c-3.64,0-8.18-1.82-10-4.55a14.6,14.6,0,0,1-4.54-10c0-4.55,1.82-8.18,4.54-10A14.58,14.58,0,0,1,875.49-266.63Zm5.45,10c-.91-1.81-3.63-2.72-5.45-2.72s-4.55.91-5.45,2.72c-.91.91-2.73,3.64-2.73,5.45s.91,4.55,2.73,5.46c.9.91,3.63,2.72,5.45,2.72s4.54-.91,5.45-2.72c1.82-.91,2.73-3.64,2.73-5.46Q883.67-255.27,880.94-256.64Z" transform="translate(-124 498.35)"/><path class="cls-4" d="M790.07-343c3.64,0,8.18,1.81,10,4.54h0a14.62,14.62,0,0,1,4.54,10c0,3.63-1.82,8.17-4.54,10a14.59,14.59,0,0,1-10,4.55c-4.54,0-8.18-1.82-10-4.55a14.57,14.57,0,0,1-4.55-10c0-4.55,1.82-8.18,4.55-10C781.89-341.15,785.53-343,790.07-343Zm5.45,10c-.91-1.81-3.63-2.72-5.45-2.72s-4.54.91-5.45,2.72c-1.82.91-2.73,3.64-2.73,5.45s.91,4.55,2.73,5.46c.91.91,3.63,2.72,5.45,2.72s4.54-.91,5.45-2.72c1.82-.91,2.73-3.64,2.73-5.46s-1.82-4.54-2.73-5.45Z" transform="translate(-124 498.35)"/><path class="cls-4" d="M702.84-282.08c1.81,0,4.54-.91,5.45-2.73,1.82-.91,2.72-3.63,2.72-5.45s-.9-4.54-2.72-5.45c-.91-.91-3.64-2.73-5.45-2.73s-4.55.91-5.46,2.73c-1.81.91-2.72,3.63-2.72,5.45s.91,4.54,2.72,5.45Q698.74-282.08,702.84-282.08Zm10,1.82a14.6,14.6,0,0,1-10,4.54c-4.55,0-8.18-1.82-10-4.54a14.58,14.58,0,0,1-4.54-10,14.56,14.56,0,0,1,4.54-10,14.59,14.59,0,0,1,10-4.55c4.54,0,8.17,1.82,10,4.55a14.57,14.57,0,0,1,4.55,10C716.47-285.72,715.56-282.08,712.83-280.26Z" transform="translate(-124 498.35)"/></svg>