<?xml version="1.0" encoding="utf-8"?>
<!-- Generator: Adobe Illustrator 24.1.2, SVG Export Plug-In . SVG Version: 6.00 Build 0)  -->
<svg version="1.1" id="f06243a5-ec4d-4d3d-ba68-693f22b4c670"
	 xmlns="http://www.w3.org/2000/svg" xmlns:xlink="http://www.w3.org/1999/xlink" x="0px" y="0px" viewBox="0 0 202.1 101.3"
	 style="enable-background:new 0 0 202.1 101.3;" xml:space="preserve">
<style type="text/css">
	.st0{fill:#FDC50E;}
	.st1{fill-rule:evenodd;clip-rule:evenodd;fill:#09024F;}
	.st2{fill-rule:evenodd;clip-rule:evenodd;fill:#FDC50E;}
	.st3{fill:#09024F;}
	.st4{fill:#FDC509;}
	.st5{fill:#FDC506;}
	.st6{fill:#FDC50A;}
</style>
<path class="st0" d="M74.7,0h5.8C84.1,0,87,2.9,87,6.5V53c0,3.6-2.9,6.5-6.5,6.5h-5.8c-3.6,0-6.5-2.9-6.5-6.5V6.5
	C68.3,2.9,71.2,0,74.7,0z"/>
<path class="st0" d="M98.2,0h5.8c3.6,0,6.5,2.9,6.5,6.5V53c0,3.6-2.9,6.5-6.5,6.5h-5.8c-3.6,0-6.5-2.9-6.5-6.5V6.5
	C91.7,2.9,94.6,0,98.2,0z"/>
<path class="st0" d="M121.6,0h5.8c3.6,0,6.5,2.9,6.5,6.5V53c0,3.6-2.9,6.5-6.5,6.5h-5.8c-3.6,0-6.5-2.9-6.5-6.5V6.5
	C115.1,2.9,118,0,121.6,0z"/>
<polygon class="st1" points="78.5,42.9 152.1,42.9 152.1,45 78.5,45 "/>
<polygon class="st1" points="62.5,53 127.3,53 127.3,50.9 62.5,50.9 "/>
<polygon class="st1" points="68.3,37 103.5,37 103.5,34.9 68.3,34.9 "/>
<polygon class="st2" points="133.8,42.9 158,42.9 158,45 133.8,45 "/>
<path class="st0" d="M124.5,48.8c0.8,0,1.6,0.3,2.1,1c0.6,0.5,0.9,1.3,1,2.1c0,0.8-0.3,1.6-1,2.1c-0.5,0.6-1.3,0.9-2.1,1
	c-0.8,0-1.6-0.3-2.1-1c-0.6-0.6-0.9-1.3-1-2.1c0-0.8,0.3-1.6,1-2.1C122.9,49.2,123.7,48.9,124.5,48.8z M125.6,51
	c-0.5-0.6-1.4-0.8-2-0.3c-0.1,0.1-0.2,0.2-0.3,0.3c-0.3,0.3-0.5,0.7-0.6,1.1c0,0.5,0.2,0.9,0.6,1.1c0.3,0.3,0.7,0.5,1.1,0.6
	c0.9-0.1,1.6-0.8,1.7-1.7C126.3,51.6,126,51.2,125.6,51L125.6,51z"/>
<path class="st0" d="M101.1,32.9c0.8,0,1.6,0.3,2.1,1l0,0c0.6,0.6,0.9,1.3,1,2.1c0,0.8-0.3,1.6-1,2.1c-0.5,0.6-1.3,0.9-2.1,1
	c-0.8,0-1.6-0.3-2.1-1c-0.6-0.5-0.9-1.3-1-2.1C98.1,34.3,99.4,33,101.1,32.9L101.1,32.9z M102.2,35c-0.6-0.7-1.6-0.8-2.3-0.2
	c-0.7,0.6-0.8,1.6-0.2,2.3c0.1,0.1,0.1,0.1,0.2,0.2c0.3,0.3,0.7,0.5,1.1,0.6c0.9-0.1,1.6-0.8,1.7-1.7
	C102.7,35.7,102.5,35.3,102.2,35L102.2,35z"/>
<path class="st0" d="M77.6,45.7c0.9,0.1,1.7-0.6,1.7-1.5c0-0.5-0.2-1-0.6-1.3c-0.3-0.3-0.7-0.5-1.1-0.6c-0.9-0.1-1.7,0.6-1.7,1.5
	c0,0.5,0.2,1,0.6,1.3C76.7,45.5,77.2,45.8,77.6,45.7z M79.7,46.1c-0.6,0.6-1.3,0.9-2.1,1c-0.8,0-1.6-0.3-2.1-1
	c-1.2-1.2-1.1-3.2,0.1-4.3c0.5-0.5,1.2-0.8,2-0.8c0.8,0,1.6,0.3,2.1,1c0.6,0.5,0.9,1.3,1,2.1C80.7,44.8,80.3,45.5,79.7,46.1
	L79.7,46.1z"/>
<g>
	<circle class="st3" cx="101.1" cy="35.9" r="3.4"/>
	<circle class="st4" cx="101.1" cy="36" r="1.9"/>
</g>
<g>
	<circle class="st3" cx="77.6" cy="44" r="3.4"/>
	<circle class="st5" cx="77.6" cy="44" r="1.9"/>
</g>
<g>
	<circle class="st3" cx="124.5" cy="51.6" r="3.4"/>
	<circle class="st6" cx="124.5" cy="51.6" r="1.9"/>
</g>
<polygon class="st2" points="42.1,50.9 68.3,50.9 68.3,53 42.1,53 "/>
<g>
	<path class="st0" d="M192.3,77.2c-0.7,1-1.2,1.9-1.6,2.6c-0.5,0.8-0.8,1.5-1.1,1.9l-2.3,4.5l0,0l-2.6,5l-0.4,1l-1.8,3.5
		c-0.3,0.5-0.5,1-0.7,1.5l0,0c-0.2,0.4-0.4,0.8-0.7,1.2l0,0c-0.1,0.3-0.2,0.6-0.4,0.8l-0.1,0.1c-0.2,0.3-0.3,0.7-0.5,1
		c-0.3,0.1-0.4,0.3-0.7,0.3s-0.4-0.1-0.7-0.4c-0.2-0.3-0.5-0.6-0.7-1c0-0.1-0.1-0.3-0.3-0.5c-0.2-0.2-0.3-0.5-0.4-0.8l0,0l-0.5-1
		l0,0l-9.4-18.7l-0.5,11.1l0,0v5.8c-0.1,1.1,0.2,2.2,0.8,3.1c0.5,0.8,1.4,1.2,2.3,1.4l0,0c0.4,0.1,0.8,0.2,1.2,0.3
		c0.3,0.1,0.5,0.3,0.5,0.5c0,0.2-0.1,0.4-0.3,0.5c-0.2,0.1-0.4,0.2-0.7,0.1h-1c-0.9,0-1.8-0.1-2.4-0.1h-3.8c-0.5,0-1.2,0.1-1.8,0.1
		h-0.8c-0.2,0-0.5,0-0.7-0.1c-0.2-0.1-0.3-0.3-0.3-0.5c0-0.1,0.1-0.3,0.1-0.4c0.1-0.1,0.3-0.1,0.5-0.3l0,0c0.5-0.1,1-0.3,1.5-0.5
		c0.4-0.2,0.7-0.5,0.9-1l0,0c0.3-0.5,0.5-1.1,0.5-1.6c0.2-0.8,0.3-1.6,0.3-2.4l0.4-6.8c0.1-2.4,0.3-4.5,0.3-6.1s0.1-2.7,0.1-3.4
		c0-1.2-0.1-2.5-0.3-3.7c-0.1-0.9-0.4-1.8-1-2.6c-0.4-0.6-0.9-1.2-1.5-1.6c-0.8-0.4-1.6-0.7-2.4-0.8c-0.3,0-0.5-0.1-0.7-0.3
		c-0.1-0.1-0.3-0.3-0.3-0.4c0-0.2,0.1-0.4,0.3-0.5c0.1-0.1,0.3-0.1,0.5-0.1h6.2c0.4,0,0.8,0.1,1.1,0.4c0.4,0.3,0.7,0.7,1,1.2
		l0.3,0.5l0,0l10.7,21.3l1.4,2.4l0,0c0.1,0.1,0.1,0.4,0.3,0.4l0,0l0.3-0.3l0.3-0.7l0.3-0.4l0,0l12.1-23.9l0,0
		c0.1-0.3,0.3-0.4,0.3-0.7l0,0c0.1-0.1,0.1-0.3,0.3-0.4s0.1-0.1,0.3-0.1h3.8c0.4,0,0.7,0,1.1-0.1h0.7c0.2,0,0.4,0,0.5,0.1
		c0.1,0.1,0.2,0.3,0.1,0.4c0,0.2,0,0.4-0.1,0.5c-0.1,0.1-0.3,0.1-0.4,0.3l-1.1,0.3l0,0c-0.4,0.1-0.8,0.3-1.1,0.5
		c-0.3,0.3-0.5,0.6-0.7,1c-0.1,0.4-0.3,1-0.4,1.5l0,0c-0.1,0.8-0.2,1.5-0.1,2.3l0,0l0.1,5.7l0.5,12.9l0.1,3l0,0c0,0.5,0,1,0.1,1.5
		c0.1,0.4,0.3,0.7,0.5,1c0.3,0.3,0.6,0.5,1,0.7c0.5,0.2,1.1,0.3,1.6,0.4c0.4,0,0.7,0.1,1.1,0.3c0.3,0.1,0.4,0.3,0.4,0.5
		c0,0.2-0.2,0.4-0.4,0.4l0,0c-0.1,0.1-0.4,0.1-0.8,0.1h-0.7l-2-0.1l0,0c-0.4,0-0.7,0-1.1-0.1h-2.2c-0.5,0-0.9,0-1.4,0.1l0,0
		c-1,0-1.6,0.1-2.2,0.1h-1c-0.2,0-0.5,0-0.7-0.1l0,0c-0.1-0.1-0.3-0.3-0.3-0.4s0.1-0.3,0.3-0.4l0,0c0.1-0.1,0.3-0.1,0.5-0.3l0,0
		c0.4-0.1,0.8-0.2,1.2-0.4c0.3-0.2,0.5-0.4,0.7-0.7l0,0c0.2-0.4,0.3-0.8,0.4-1.2c0.1-0.6,0.2-1.2,0.1-1.8l0,0l-0.1-3.9L192.3,77.2z"
		/>
	<path class="st0" d="M144.1,88.3h-9.4c-0.5,0-1,0-1.5,0.1c-0.3,0-0.5,0.1-0.8,0.1l0,0l-0.5,0.5c-0.1,0.3-0.4,0.7-0.7,1.2l0,0
		l-1.6,3.5c-0.3,0.7-0.6,1.3-0.8,2l0,0c-0.1,0.4-0.2,0.9-0.3,1.4c0,0.4,0.1,0.7,0.1,1l0,0c0.1,0.3,0.3,0.4,0.4,0.7
		c0.2,0.2,0.5,0.3,0.8,0.4c0.4,0.1,0.9,0.3,1.5,0.4l0,0c0.3,0,0.5,0.1,0.7,0.3c0.1,0.1,0.3,0.3,0.3,0.4l0,0c0,0.1-0.1,0.3-0.1,0.4
		c-0.1,0.1-0.3,0.1-0.5,0.1h-1l-2.4-0.1h-4.1c-0.4,0-0.7,0.1-1,0.1h-0.4c-0.2,0-0.5,0-0.7-0.1c-0.1-0.1-0.3-0.3-0.3-0.4
		c0-0.1,0-0.3,0.1-0.4c0.1-0.1,0.3-0.1,0.4-0.3l0,0l1-0.3l0,0c0.2,0,0.4-0.1,0.5-0.3l0,0c0.3-0.2,0.6-0.5,0.8-0.8
		c0.3-0.4,0.5-0.7,0.8-1.1s0.4-0.7,0.7-1.1l0.7-1.6l0,0l13.3-27.1l0,0c0.1-0.2,0.2-0.4,0.4-0.5l0,0c0.1-0.2,0.3-0.3,0.5-0.3
		c0.1,0,0.3,0.1,0.4,0.3c0.2,0.2,0.3,0.3,0.4,0.5l11.1,26.1l0.5,1.2l0,0c0.4,1,0.8,1.8,1.1,2.3c0.3,0.4,0.6,0.8,1,1.2
		c0.4,0.2,0.8,0.4,1.2,0.5c0.7,0.2,1.3,0.4,2,0.4l0,0c0.3,0.1,0.5,0.1,0.7,0.3l0,0c0.1,0.1,0.3,0.3,0.3,0.4l0,0
		c0,0.1-0.1,0.4-0.3,0.4c-0.2,0.1-0.4,0.2-0.5,0.1H158c-0.6,0-1.3,0-1.9-0.1h-5.8c-0.7,0-1.2,0.1-1.5,0.1c-0.1,0-0.3,0.1-0.4,0.1
		h-0.4c-0.3,0-0.4-0.1-0.7-0.1c-0.1-0.1-0.1-0.3-0.1-0.5c0-0.1,0-0.4,0.1-0.4c0.1-0.1,0.3-0.1,0.5-0.1l0.8-0.1l0,0
		c0.7-0.1,1.3-0.7,1.2-1.5c0-0.6-0.2-1.2-0.4-1.8c-0.3-0.8-0.7-1.9-1.2-3.1l0,0l-1.4-3.1c-0.1-0.3-0.2-0.7-0.4-1
		c-0.1-0.1-0.2-0.3-0.3-0.4l0,0c-0.1-0.1-0.3-0.1-0.5-0.1C145.2,88.3,144.6,88.3,144.1,88.3z M144.4,84.4l-4.1-9.4l0,0l-0.1-0.5l0,0
		c-0.1-0.3-0.3-0.4-0.3-0.5c-0.1-0.1-0.1-0.1-0.3-0.1l0,0l-0.1,0.1c-0.1,0.1-0.1,0.2-0.1,0.3l0,0l-5,10.2l0,0
		c-0.1,0.3-0.1,0.4-0.3,0.5l0,0c-0.1,0.1-0.1,0.2-0.1,0.3c0,0.1,0.1,0.3,0.1,0.4c0.1,0.1,0.4,0.1,0.8,0.1h8.4c0.3,0,0.6,0,0.9-0.1
		c0.1-0.1,0.3-0.1,0.3-0.4V85l0,0c0-0.1-0.1-0.1-0.1-0.3l0,0L144.4,84.4z"/>
	<path class="st0" d="M120.1,70.8l0.8,5.7l0,0l0.1,0.5l0,0l-0.1,0.3l0,0c0,0.1-0.1,0.1-0.1,0.3c-0.1,0-0.1,0.1-0.3,0.1l0,0
		c-0.2,0-0.4-0.1-0.5-0.3c-0.2-0.2-0.4-0.5-0.5-0.8l0,0c-1.4-2.3-3.3-4.3-5.6-5.8c-2.2-1.3-4.8-1.9-7.3-1.9c-2-0.1-4,0.3-5.8,1
		c-1.7,0.6-3.2,1.5-4.5,2.7c-1.2,1.2-2.2,2.7-2.8,4.3c-0.7,1.8-1,3.8-1,5.7c0,2.3,0.4,4.5,1.1,6.7c0.7,2,1.7,3.8,3.1,5.3l0,0
		c1.3,1.5,2.9,2.7,4.8,3.5c1.9,0.8,3.9,1.3,6,1.2c1.3,0,2.6-0.1,3.8-0.4c1.3-0.3,2.5-0.8,3.7-1.4l0,0c1.1-0.6,2.1-1.3,3.1-2
		c0.8-0.7,1.4-1.6,2-2.4l0,0c0.1-0.3,0.3-0.7,0.5-1c0.1-0.2,0.3-0.4,0.5-0.4l0,0c0.1,0,0.4,0,0.4,0.1c0.1,0.1,0.2,0.3,0.1,0.4l0,0
		v0.3l0,0l-0.1,0.5l0,0l-0.5,3l0,0l-0.1,0.4c0,0.3-0.1,0.4-0.4,0.7c-0.3,0.3-0.6,0.5-0.9,0.7l0,0c-1.9,1.2-4,2.1-6.2,2.6
		c-2.3,0.6-4.6,0.9-6.9,1c-2.5,0-5.1-0.4-7.5-1.2c-2.2-0.7-4.2-1.9-6-3.4c-1.6-1.5-2.9-3.3-3.8-5.3c-0.9-2.2-1.4-4.5-1.4-6.8
		c0-2.3,0.4-4.7,1.4-6.8c0.9-2.1,2.3-4,3.9-5.6c1.7-1.6,3.8-2.8,6-3.7c2.3-0.8,4.8-1.3,7.3-1.2c1.8,0,3.6,0.2,5.3,0.5
		c1.6,0.4,3.2,0.9,4.8,1.6l1.1,0.5l0.4,0.1l0.4,0.1h0.1l0.1-0.1c0.3-0.1,0.4-0.3,0.5-0.3l0,0c0.1-0.1,0.3-0.2,0.4-0.1
		c0.1,0,0.4,0.1,0.4,0.3l0,0C120,70.3,120,70.5,120.1,70.8z"/>
	<path class="st0" d="M82.7,70.8l0.8,5.7l0,0l0.1,0.5l0,0l-0.1,0.3l0,0l-0.3,0.3l0,0c-0.1,0-0.1,0.1-0.3,0.1l0,0
		c-0.1,0-0.3-0.1-0.5-0.3c-0.2-0.2-0.4-0.5-0.5-0.8l0,0c-1.4-2.4-3.4-4.4-5.7-5.8c-2.2-1.3-4.8-1.9-7.3-1.9c-2,0-4,0.3-5.8,1
		c-1.7,0.6-3.2,1.5-4.5,2.7c-1.2,1.2-2.2,2.7-2.9,4.3c-0.7,1.8-1,3.8-0.9,5.7c0,2.3,0.4,4.5,1.1,6.7c0.7,2,1.7,3.8,3.1,5.3l0,0
		c1.3,1.5,2.9,2.7,4.8,3.5c1.9,0.8,3.9,1.3,6,1.2c1.3,0,2.6-0.1,3.8-0.4c1.3-0.4,2.6-0.8,3.8-1.4l0,0c1.1-0.6,2.1-1.3,3.1-2
		c0.8-0.7,1.4-1.6,2-2.4l0,0c0.3-0.4,0.4-0.8,0.5-1l0,0c0.3-0.3,0.4-0.4,0.5-0.4l0,0c0.3,0,0.5,0.1,0.5,0.4c0,0,0,0.1,0,0.1l0,0v0.3
		l0,0l-0.1,0.5l0,0l-0.7,3l0,0l-0.1,0.4c0,0.3-0.1,0.4-0.4,0.7c-0.3,0.3-0.6,0.5-0.9,0.7l0,0c-1.9,1.2-4,2-6.2,2.6
		c-2.3,0.6-4.6,0.9-6.9,1c-2.5,0-5.1-0.4-7.5-1.2c-2.2-0.7-4.2-1.9-6-3.4c-1.7-1.4-3-3.2-3.8-5.3c-0.8-2.2-1.3-4.5-1.2-6.8
		c0-2.3,0.4-4.7,1.4-6.8c0.9-2.1,2.3-4,3.9-5.6c1.7-1.6,3.8-2.8,6-3.7c2.3-0.8,4.8-1.3,7.3-1.2c1.8,0,3.6,0.2,5.3,0.5
		c1.6,0.4,3.2,0.9,4.7,1.6l1,0.5l0.4,0.1l0.4,0.1h0.1c0.1,0,0.1-0.1,0.3-0.1c0.1-0.1,0.3-0.2,0.5-0.3l0,0c0.1-0.1,0.3-0.2,0.4-0.1
		c0.1,0,0.4,0.1,0.4,0.3l0,0C82.5,70.2,82.7,70.5,82.7,70.8z"/>
	<path class="st0" d="M9.1,75.1v17.8c0,0.9,0,1.8,0.1,2.7c0,0.6,0.2,1.1,0.4,1.6c0.2,0.3,0.3,0.7,0.5,1c0.1,0.3,0.4,0.4,0.7,0.7l0,0
		c0.3,0.2,0.6,0.3,1,0.4c0.4,0.1,0.8,0.1,1.4,0.3c0.4,0.1,0.8,0.1,1,0.3l0,0c0.1,0.1,0.3,0.1,0.4,0.4c0-0.1,0-0.1,0.1-0.1
		c0.1-0.1,0.3-0.1,0.4-0.3l0,0l1-0.3l0,0c0.2,0,0.4-0.1,0.5-0.3c0.3-0.1,0.4-0.4,0.7-0.8s0.5-0.7,0.8-1.1s0.4-0.7,0.7-1.1l0.8-1.6
		l0,0l13.2-27.2l0,0c0.1-0.2,0.2-0.4,0.4-0.5c0.2-0.3,0.6-0.4,0.9-0.1c0.1,0,0.1,0.1,0.1,0.1c0.2,0.1,0.3,0.3,0.3,0.5l11.1,26.1
		l0.5,1.2l0,0c0.4,1,0.8,1.8,1.1,2.3s0.7,1,0.8,1.2c0.4,0.2,0.8,0.4,1.2,0.5c0.7,0.2,1.3,0.4,2,0.4l0,0c0.3,0.1,0.5,0.1,0.7,0.3l0,0
		c0.1,0.1,0.3,0.3,0.3,0.4l0,0c0,0.1-0.1,0.4-0.3,0.4c-0.2,0.1-0.4,0.1-0.7,0.1h-1.1c-0.6,0-1.3,0-1.9-0.1h-5.7
		c-0.7,0-1.2,0.1-1.5,0.1c-0.1,0-0.4,0.1-0.5,0.1h-0.4c-0.3,0-0.4-0.1-0.5-0.1c-0.2-0.1-0.3-0.3-0.3-0.5c0-0.1,0.1-0.4,0.3-0.4
		c0.1-0.1,0.3-0.1,0.5-0.1l0.8-0.1l0,0c0.7-0.1,1.3-0.7,1.2-1.5c0-0.6-0.2-1.2-0.4-1.8c-0.3-0.8-0.7-1.9-1.2-3.1l0,0l-1.4-3.1
		c-0.1-0.4-0.4-0.8-0.4-1l0,0c-0.1-0.3-0.3-0.4-0.4-0.4l0,0c-0.1-0.1-0.3-0.1-0.5-0.1H27.3c-0.5,0-1,0-1.5,0.1
		c-0.3,0-0.5,0.1-0.8,0.1c-0.5,0.5-1,1.2-1.2,1.9l0,0L22,94c-0.3,0.6-0.6,1.3-0.8,2c-0.1,0.4-0.2,0.9-0.3,1.4
		c-0.1,0.6,0.1,1.1,0.5,1.5c0.2,0.2,0.5,0.3,0.8,0.4c0.4,0.1,1,0.3,1.5,0.4l0,0c0.3,0,0.4,0.1,0.7,0.3c0.1,0.1,0.3,0.3,0.3,0.4l0,0
		c0,0.1,0,0.3-0.1,0.4c-0.1,0.1-0.3,0.1-0.5,0.1h-1.1l-2.4-0.1h-4.1c-0.4,0-0.7,0.1-1,0.1h-0.5c-0.3,0-0.4,0-0.5-0.1
		c-0.1,0-0.1-0.1-0.3-0.3c0,0.1-0.1,0.1-0.3,0.3c-0.2,0.1-0.4,0.2-0.7,0.1h-1c-0.3,0-0.7-0.1-1.1-0.1H5.8l-3,0.1l0,0
		c-0.5,0-1,0.1-1.2,0.1c-0.2,0-0.5,0-0.7-0.1c-0.3-0.1-0.3-0.3-0.3-0.5c0-0.1,0.1-0.4,0.3-0.4c0.2-0.1,0.4-0.2,0.7-0.1l0,0
		c0.6-0.1,1.1-0.2,1.6-0.4c0.4-0.1,0.6-0.4,0.8-0.7c0.2-0.4,0.3-0.9,0.4-1.4c0.1-0.8,0.2-1.6,0.1-2.4V74.6c0-0.8,0-1.6-0.1-2.4
		c0-0.5-0.2-1-0.5-1.4l0,0c-0.3-0.4-0.6-0.7-1.1-0.8c-0.6-0.3-1.2-0.4-1.9-0.5l0,0c-0.3,0-0.5-0.1-0.7-0.3C0.1,69,0,68.9,0,68.8l0,0
		c0-0.2,0.1-0.4,0.3-0.5c0.2-0.1,0.4-0.2,0.7-0.1h0.5c0.7,0,1.4,0.1,2.2,0.1h4.5c0.5,0,1,0,1.5-0.1l1.8-0.1h0.7c0.2,0,0.5,0,0.7,0.1
		l0,0c0.1,0.1,0.3,0.3,0.3,0.4c0,0.2-0.1,0.4-0.3,0.5c-0.1,0.1-0.3,0.1-0.5,0.3l-1.4,0.5l0,0c-0.5,0.1-1,0.7-1.4,1.6
		C9.2,72.7,9,73.9,9.1,75.1z M36.8,84.4L32.8,75l0,0l-0.3-0.5l0,0c-0.1-0.3-0.1-0.4-0.3-0.5s-0.1-0.1-0.3-0.1l0,0l-0.1,0.1
		c-0.1,0-0.1,0.1-0.1,0.3l0,0l-5,10.2l0,0c-0.1,0.3-0.1,0.4-0.3,0.5l0,0c0,0.1-0.1,0.2-0.1,0.3c0,0.1,0.1,0.3,0.3,0.4
		s0.4,0.1,0.8,0.1h8.4c0.3,0,0.6,0,1-0.1c0.1-0.1,0.3-0.1,0.3-0.4c0-0.1,0-0.3-0.1-0.4l0,0L36.8,84.4z"/>
</g>
</svg>
